<svg xmlns="http://www.w3.org/2000/svg" viewBox="0 0 1000 1000" xml:space="preserve"><path d="M978.5 203.8c-16.7-21.7-46.9-24.8-76.2-24.8H195.2l-9.7-71.1c-5.5-42.4-26.3-47.7-72.6-47.7H37.7C15.6 60.1 10 82.4 10 94.8c0 12.2 8.9 31.1 30.4 31h39.5c29 .4 39.9 17 44.2 37.8l82.3 547.1C212 754 249.1 781 294.6 781h563.7c18.2 0 33-8.2 32.8-30.1-.2-20.9-13.9-32.7-32.8-32.8H309.1c-23.2 0-38.3-14-41.1-35.2l-7.3-46.8h543.9c41.4 0 76-22.7 86.1-60.5l95.7-308.7c6.8-25.7 3.9-46.9-7.9-63.1zm-68.1 95.1-76.5 248c-4.9 18.4-21.8 26.3-43.1 26.3H250.1l-45.3-330.5h662.5c15.4 0 38.2 1.2 46.3 11.9 7.2 9.5.1 32-3.2 44.3zM399.9 875.8c0 35.3-28.6 64-63.9 64s-63.9-28.6-63.9-64c0-35.3 28.6-63.9 63.9-63.9s63.9 28.6 63.9 63.9zm405.7 0c0 35.3-28.6 64-64 64s-63.9-28.6-63.9-64c0-35.3 28.6-63.9 63.9-63.9 35.3.1 64 28.6 64 63.9z"/></svg>