<?xml version="1.0" encoding="UTF-8"?>
<!-- Svg Vector Icons : http://www.onlinewebfonts.com/icon -->
<!DOCTYPE svg PUBLIC "-//W3C//DTD SVG 1.1//EN" "http://www.w3.org/Graphics/SVG/1.1/DTD/svg11.dtd">
<svg version="1.1" xmlns="http://www.w3.org/2000/svg" xmlns:xlink="http://www.w3.org/1999/xlink" x="0px" y="0px" viewBox="0 0 1000 1000" enable-background="new 0 0 1000 1000" xml:space="preserve">
<metadata> Svg Vector Icons : http://www.onlinewebfonts.com/icon </metadata>
<g><g transform="translate(0.000000,511.000000) scale(0.100000,-0.100000)"><path d="M761.3,3575.3c-241.8-40-497.5-239.8-607.4-471.5l-54-115.9v-2877v-2877l63.9-131.9c121.9-247.8,355.6-415.6,635.3-457.5c191.8-26,8199.6-26,8391.3,0c251.7,38,453.6,167.8,587.4,375.6c129.9,205.8,121.9,28,121.9,3090.8c0,2497.4-4,2791.1-32,2889c-87.9,297.7-335.7,517.5-647.3,577.4C9090.7,3601.3,909.2,3601.3,761.3,3575.3z M8859,2764.1c0-20-3828.1-2931-3860-2937c-18-4-3814.1,2869.1-3886,2939c-6,6,1734.2,12,3868,12S8861,2772.1,8859,2764.1z M2040,1029.9c615.4-467.5,1118.8-857.1,1120.8-865.1c4-12-2087.8-1694.3-2211.7-1780.2c-40-26-40-20-40,1734.2c0,967,4,1760.2,8,1760.2C921.2,1879.1,1426.6,1497.4,2040,1029.9z M9080.7,118.9c0-967-8-1756.2-16-1752.2c-42,16-2239.7,1786.2-2235.7,1800.1c6,18,2215.7,1708.2,2237.7,1710.2C9074.8,1879.1,9080.7,1087.9,9080.7,118.9z M4297.7-692.3c511.5-387.6,529.5-399.6,637.3-417.6c155.8-22,221.8,14,721.3,395.6c417.6,319.7,477.5,357.6,511.5,337.7c22-14,641.3-507.5,1380.6-1096.9l1340.6-1072.9l-1940-6c-1066.9-2-2821.1-2-3896,0l-1954,6l1366.6,1094.9C3216.8-850.1,3838.1-358.7,3846.1-358.7C3854.1-358.7,4057.9-508.5,4297.7-692.3z"/></g></g>
</svg>